<svg xmlns="http://www.w3.org/2000/svg" version="1.1" xmlns:xlink="http://www.w3.org/1999/xlink" xmlns:svgjs="http://svgjs.com/svgjs" width="1440" height="560" preserveAspectRatio="none" viewBox="0 0 1440 560"><g mask="url(&quot;#SvgjsMask1004&quot;)" fill="none"><rect width="1440" height="560" x="0" y="0" fill="rgba(19, 37, 51, 1)"></rect><path d="M588.61 575.07C725.44 567.43 806.99 330.27 1073.7 319.78 1340.41 309.29 1428.55 132.75 1558.79 129.38" stroke="rgba(241, 89, 39, 0.58)" stroke-width="2"></path><path d="M657.92 578.26C801.29 570.4 880.51 327.75 1166.93 312.26 1453.35 296.77 1532.89 56.69 1675.94 49.06" stroke="rgba(241, 89, 39, 0.58)" stroke-width="2"></path><path d="M425.5 671.62C557.66 637.4 510.94 277.38 801.17 275.32 1091.41 273.26 1362.4 392.56 1552.52 392.92" stroke="rgba(241, 89, 39, 0.58)" stroke-width="2"></path><path d="M267.29 577.29C438.45 574.99 573.8 381.82 921.35 374.7 1268.89 367.58 1398.69 111.07 1575.4 105.9" stroke="rgba(241, 89, 39, 0.58)" stroke-width="2"></path><path d="M641.95 602.54C754.48 557.3 708.32 212.79 929.21 211.58 1150.1 210.37 1352 404.91 1503.74 407.58" stroke="rgba(241, 89, 39, 0.58)" stroke-width="2"></path></g><defs><mask id="SvgjsMask1004"><rect width="1440" height="560" fill="#ffffff"></rect></mask></defs></svg>