<svg xmlns="http://www.w3.org/2000/svg" version="1.1" xmlns:xlink="http://www.w3.org/1999/xlink" xmlns:svgjs="http://svgjs.com/svgjs" width="1440" height="900" preserveAspectRatio="none" viewBox="0 0 1440 900"><g mask="url(&quot;#SvgjsMask1103&quot;)" fill="none"><rect width="1440" height="900" x="0" y="0" fill="rgba(19, 37, 51, 1)"></rect><path d="M444 102L890 548" stroke-width="8" stroke="url(#SvgjsLinearGradient1104)" stroke-linecap="round" class="BottomRight"></path><path d="M146 50L-380 -476" stroke-width="6" stroke="url(#SvgjsLinearGradient1105)" stroke-linecap="round" class="BottomRight"></path><path d="M537 442L41 -54" stroke-width="6" stroke="url(#SvgjsLinearGradient1106)" stroke-linecap="round" class="TopLeft"></path><path d="M1191 228L1611 648" stroke-width="8" stroke="url(#SvgjsLinearGradient1106)" stroke-linecap="round" class="TopLeft"></path><path d="M789 90L1284 585" stroke-width="10" stroke="url(#SvgjsLinearGradient1104)" stroke-linecap="round" class="BottomRight"></path><path d="M1014 575L580 141" stroke-width="10" stroke="url(#SvgjsLinearGradient1106)" stroke-linecap="round" class="TopLeft"></path><path d="M263 440L-139 38" stroke-width="10" stroke="url(#SvgjsLinearGradient1107)" stroke-linecap="round" class="TopLeft"></path><path d="M1434 707L1943 1216" stroke-width="6" stroke="url(#SvgjsLinearGradient1105)" stroke-linecap="round" class="BottomRight"></path><path d="M573 680L1226 1333" stroke-width="8" stroke="url(#SvgjsLinearGradient1104)" stroke-linecap="round" class="BottomRight"></path><path d="M31 491L568 1028" stroke-width="8" stroke="url(#SvgjsLinearGradient1104)" stroke-linecap="round" class="BottomRight"></path><path d="M1116 1L713 -402" stroke-width="8" stroke="url(#SvgjsLinearGradient1105)" stroke-linecap="round" class="BottomRight"></path><path d="M1311 44L883 -384" stroke-width="6" stroke="url(#SvgjsLinearGradient1105)" stroke-linecap="round" class="BottomRight"></path><path d="M1412 286L1994 868" stroke-width="8" stroke="url(#SvgjsLinearGradient1104)" stroke-linecap="round" class="BottomRight"></path><path d="M1122 608L583 69" stroke-width="6" stroke="url(#SvgjsLinearGradient1105)" stroke-linecap="round" class="BottomRight"></path><path d="M734 188L323 -223" stroke-width="10" stroke="url(#SvgjsLinearGradient1105)" stroke-linecap="round" class="BottomRight"></path><path d="M784 766L1198 1180" stroke-width="10" stroke="url(#SvgjsLinearGradient1105)" stroke-linecap="round" class="BottomRight"></path><path d="M453 541L126 214" stroke-width="8" stroke="url(#SvgjsLinearGradient1105)" stroke-linecap="round" class="BottomRight"></path><path d="M1409 322L1759 672" stroke-width="6" stroke="url(#SvgjsLinearGradient1107)" stroke-linecap="round" class="TopLeft"></path><path d="M613 485L88 -40" stroke-width="6" stroke="url(#SvgjsLinearGradient1104)" stroke-linecap="round" class="BottomRight"></path><path d="M1069 486L832 249" stroke-width="8" stroke="url(#SvgjsLinearGradient1106)" stroke-linecap="round" class="TopLeft"></path><path d="M737 133L1068 464" stroke-width="10" stroke="url(#SvgjsLinearGradient1104)" stroke-linecap="round" class="BottomRight"></path><path d="M246 387L763 904" stroke-width="6" stroke="url(#SvgjsLinearGradient1106)" stroke-linecap="round" class="TopLeft"></path><path d="M1232 315L852 -65" stroke-width="8" stroke="url(#SvgjsLinearGradient1106)" stroke-linecap="round" class="TopLeft"></path><path d="M973 624L511 162" stroke-width="10" stroke="url(#SvgjsLinearGradient1107)" stroke-linecap="round" class="TopLeft"></path><path d="M636 847L981 1192" stroke-width="6" stroke="url(#SvgjsLinearGradient1105)" stroke-linecap="round" class="BottomRight"></path><path d="M330 779L96 545" stroke-width="10" stroke="url(#SvgjsLinearGradient1104)" stroke-linecap="round" class="BottomRight"></path><path d="M956 215L331 -410" stroke-width="6" stroke="url(#SvgjsLinearGradient1104)" stroke-linecap="round" class="BottomRight"></path><path d="M1131 436L1675 980" stroke-width="8" stroke="url(#SvgjsLinearGradient1107)" stroke-linecap="round" class="TopLeft"></path><path d="M278 440L-190 -28" stroke-width="6" stroke="url(#SvgjsLinearGradient1106)" stroke-linecap="round" class="TopLeft"></path><path d="M984 15L685 -284" stroke-width="8" stroke="url(#SvgjsLinearGradient1106)" stroke-linecap="round" class="TopLeft"></path><path d="M539 754L1122 1337" stroke-width="8" stroke="url(#SvgjsLinearGradient1106)" stroke-linecap="round" class="TopLeft"></path><path d="M1088 660L491 63" stroke-width="10" stroke="url(#SvgjsLinearGradient1107)" stroke-linecap="round" class="TopLeft"></path><path d="M1075 685L772 382" stroke-width="6" stroke="url(#SvgjsLinearGradient1104)" stroke-linecap="round" class="BottomRight"></path><path d="M1408 213L815 -380" stroke-width="10" stroke="url(#SvgjsLinearGradient1105)" stroke-linecap="round" class="BottomRight"></path><path d="M1350 166L1770 586" stroke-width="8" stroke="url(#SvgjsLinearGradient1105)" stroke-linecap="round" class="BottomRight"></path><path d="M1344 190L1693 539" stroke-width="6" stroke="url(#SvgjsLinearGradient1105)" stroke-linecap="round" class="BottomRight"></path><path d="M1001 122L1593 714" stroke-width="6" stroke="url(#SvgjsLinearGradient1104)" stroke-linecap="round" class="BottomRight"></path><path d="M262 351L495 584" stroke-width="8" stroke="url(#SvgjsLinearGradient1104)" stroke-linecap="round" class="BottomRight"></path><path d="M813 454L322 -37" stroke-width="6" stroke="url(#SvgjsLinearGradient1107)" stroke-linecap="round" class="TopLeft"></path><path d="M918 223L1344 649" stroke-width="10" stroke="url(#SvgjsLinearGradient1106)" stroke-linecap="round" class="TopLeft"></path><path d="M1125 77L745 -303" stroke-width="6" stroke="url(#SvgjsLinearGradient1104)" stroke-linecap="round" class="BottomRight"></path><path d="M1353 797L1872 1316" stroke-width="10" stroke="url(#SvgjsLinearGradient1107)" stroke-linecap="round" class="TopLeft"></path><path d="M1388 508L1928 1048" stroke-width="6" stroke="url(#SvgjsLinearGradient1105)" stroke-linecap="round" class="BottomRight"></path></g><defs><mask id="SvgjsMask1103"><rect width="1440" height="900" fill="#ffffff"></rect></mask><linearGradient x1="0%" y1="0%" x2="100%" y2="100%" id="SvgjsLinearGradient1104"><stop stop-color="rgba(29, 64, 119, 0)" offset="0"></stop><stop stop-color="rgba(29, 64, 119, 0.93)" offset="1"></stop></linearGradient><linearGradient x1="0%" y1="0%" x2="100%" y2="100%" id="SvgjsLinearGradient1105"><stop stop-color="rgba(241, 89, 39, 0)" offset="0"></stop><stop stop-color="rgba(241, 89, 39, 1)" offset="1"></stop></linearGradient><linearGradient x1="100%" y1="100%" x2="0%" y2="0%" id="SvgjsLinearGradient1106"><stop stop-color="rgba(241, 89, 39, 0)" offset="0"></stop><stop stop-color="rgba(241, 89, 39, 1)" offset="1"></stop></linearGradient><linearGradient x1="100%" y1="100%" x2="0%" y2="0%" id="SvgjsLinearGradient1107"><stop stop-color="rgba(29, 64, 119, 0)" offset="0"></stop><stop stop-color="rgba(29, 64, 119, 0.93)" offset="1"></stop></linearGradient></defs></svg>