<svg xmlns="http://www.w3.org/2000/svg" xmlns:xlink="http://www.w3.org/1999/xlink" width="500" zoomAndPan="magnify" viewBox="0 0 375 374.999991" height="500" preserveAspectRatio="xMidYMid meet" version="1.0"><defs><clipPath id="id1"><path d="M 12.980469 37.621094 L 356 37.621094 L 356 329.25 L 12.980469 329.25 Z M 12.980469 37.621094 " clip-rule="nonzero"/></clipPath></defs><g clip-path="url(#id1)"><path fill="rgb(0%, 0%, 0%)" d="M 354.933594 110.851562 C 353.242188 108.175781 349.980469 106.914062 346.945312 107.8125 C 341.285156 109.46875 334.089844 110.972656 325.585938 112.285156 C 333.46875 108.261719 339.75 103.925781 344.234375 99.4375 C 346.667969 97.003906 346.996094 93.1875 345.03125 90.371094 C 343.0625 87.558594 339.351562 86.574219 336.246094 88.023438 C 328.015625 91.890625 319.046875 93.878906 309.589844 93.929688 C 293.492188 59.378906 264.746094 46.582031 263.644531 46.117188 C 246.097656 38.140625 229.378906 35.757812 214.4375 39.070312 C 174.40625 47.964844 156.101562 95.621094 162.089844 134.664062 C 151.441406 133.921875 94.765625 128.222656 23.542969 87.75 C 21.332031 86.488281 18.625 86.523438 16.433594 87.816406 C 14.257812 89.128906 12.929688 91.496094 12.980469 94.035156 C 13.808594 136.304688 52.390625 156.488281 68.953125 163.1875 C 65.449219 163.550781 60.066406 163.636719 54.839844 163.414062 C 51.699219 163.277344 48.800781 165.277344 47.835938 168.300781 C 46.851562 171.324219 48.007812 174.621094 50.628906 176.363281 C 62.222656 184.101562 73.835938 189.160156 85.152344 191.4375 C 82.703125 191.613281 80.167969 191.714844 77.683594 191.800781 C 74.527344 191.90625 71.816406 194.082031 71.058594 197.136719 C 70.28125 200.195312 71.628906 203.40625 74.351562 204.976562 C 84.945312 211.140625 101.390625 218.480469 119.644531 218.480469 L 120.957031 218.460938 C 118.9375 219.203125 116.675781 219.859375 114.226562 220.414062 C 113.46875 220.570312 112.726562 220.722656 111.964844 220.863281 C 108.773438 221.46875 106.410156 224.160156 106.222656 227.40625 C 106.03125 230.652344 108.066406 233.605469 111.15625 234.574219 C 124.578125 238.769531 137.105469 239.734375 147.734375 237.371094 C 149.734375 236.921875 151.71875 236.351562 153.601562 235.660156 L 153.617188 235.660156 C 153.324219 246.503906 147.613281 282.992188 86.328125 296.613281 L 85.515625 296.789062 C 81.6875 297.652344 73.542969 298.636719 63.242188 298.636719 C 58.996094 298.636719 54.753906 298.480469 50.59375 298.152344 C 47.179688 297.859375 44.074219 300.101562 43.210938 303.417969 C 42.347656 306.734375 43.96875 310.1875 47.074219 311.621094 C 70.558594 322.480469 96.351562 328.421875 123.734375 329.25 C 123.820312 329.25 123.890625 329.25 123.957031 329.25 C 138.640625 329.25 153.324219 327.644531 167.609375 324.46875 C 193.800781 318.648438 219.234375 307.457031 243.214844 291.246094 L 243.234375 291.246094 C 243.765625 291.039062 244.269531 290.761719 244.734375 290.449219 C 278.878906 266.878906 303.984375 233.882812 319.375 192.386719 C 319.425781 192.25 319.476562 192.113281 319.527344 191.957031 C 325.738281 171.183594 327.898438 152.398438 325.929688 136.132812 C 338.058594 132.210938 347.546875 126.582031 354.140625 119.363281 C 356.277344 117.035156 356.605469 113.5625 354.933594 110.851562 Z M 354.933594 110.851562 " fill-opacity="1" fill-rule="nonzero"/></g></svg>