<svg xmlns="http://www.w3.org/2000/svg" xmlns:xlink="http://www.w3.org/1999/xlink" width="500" zoomAndPan="magnify" viewBox="0 0 375 374.999991" height="500" preserveAspectRatio="xMidYMid meet" version="1.0"><defs><clipPath id="id1"><path d="M 26.515625 71.585938 L 344.515625 71.585938 L 344.515625 295 L 26.515625 295 Z M 26.515625 71.585938 " clip-rule="nonzero"/></clipPath></defs><g clip-path="url(#id1)"><path fill="rgb(0%, 0%, 0%)" d="M 337.574219 106.648438 C 337.117188 104.972656 336.554688 103.332031 335.886719 101.726562 C 335.214844 100.125 334.445312 98.570312 333.574219 97.066406 C 332.699219 95.5625 331.734375 94.125 330.675781 92.746094 C 329.613281 91.367188 328.46875 90.066406 327.238281 88.835938 C 326.007812 87.609375 324.703125 86.464844 323.324219 85.40625 C 321.945312 84.347656 320.503906 83.382812 319 82.511719 C 317.492188 81.640625 315.9375 80.871094 314.332031 80.203125 C 312.726562 79.535156 311.082031 78.972656 309.40625 78.515625 C 284.710938 71.785156 185.316406 71.785156 185.316406 71.785156 C 185.316406 71.785156 85.914062 71.980469 61.214844 78.714844 C 59.535156 79.171875 57.894531 79.730469 56.289062 80.402344 C 54.683594 81.070312 53.128906 81.839844 51.621094 82.710938 C 50.117188 83.582031 48.675781 84.546875 47.296875 85.605469 C 45.917969 86.664062 44.613281 87.808594 43.382812 89.035156 C 42.152344 90.265625 41.007812 91.566406 39.945312 92.945312 C 38.886719 94.324219 37.917969 95.761719 37.046875 97.265625 C 36.175781 98.769531 35.40625 100.324219 34.734375 101.925781 C 34.066406 103.53125 33.503906 105.171875 33.046875 106.847656 C 26.515625 131.515625 26.515625 183.089844 26.515625 183.089844 C 26.515625 183.089844 26.515625 234.660156 33.25 259.527344 C 33.707031 261.203125 34.269531 262.84375 34.9375 264.449219 C 35.609375 266.050781 36.378906 267.605469 37.25 269.109375 C 38.125 270.613281 39.089844 272.050781 40.148438 273.429688 C 41.210938 274.808594 42.355469 276.109375 43.585938 277.339844 C 44.816406 278.566406 46.121094 279.710938 47.5 280.769531 C 48.878906 281.828125 50.320312 282.792969 51.824219 283.664062 C 53.332031 284.535156 54.886719 285.304688 56.492188 285.972656 C 58.097656 286.644531 59.742188 287.203125 61.417969 287.660156 C 86.113281 294.394531 185.515625 294.394531 185.515625 294.394531 C 185.515625 294.394531 284.914062 294.394531 309.613281 287.664062 C 311.292969 287.210938 312.933594 286.648438 314.539062 285.980469 C 316.144531 285.3125 317.703125 284.539062 319.207031 283.667969 C 320.710938 282.800781 322.15625 281.832031 323.535156 280.773438 C 324.914062 279.714844 326.21875 278.574219 327.449219 277.34375 C 328.679688 276.117188 329.824219 274.8125 330.882812 273.433594 C 331.945312 272.058594 332.910156 270.617188 333.78125 269.113281 C 334.652344 267.609375 335.425781 266.058594 336.09375 264.453125 C 336.761719 262.851562 337.324219 261.210938 337.78125 259.53125 C 344.515625 234.863281 344.515625 183.089844 344.515625 183.089844 C 344.515625 183.089844 344.316406 131.515625 337.574219 106.648438 Z M 337.574219 106.648438 " fill-opacity="1" fill-rule="nonzero"/></g><path fill="rgb(100%, 100%, 100%)" d="M 153.675781 230.785156 L 236.128906 183.089844 L 153.667969 135.390625 Z M 153.675781 230.785156 " fill-opacity="1" fill-rule="nonzero"/></svg>